<?xml version="1.0" encoding="UTF-8" standalone="no"?>
<svg width="70px" height="44px" viewBox="0 0 70 44" version="1.1" xmlns="http://www.w3.org/2000/svg" xmlns:xlink="http://www.w3.org/1999/xlink">
    <!-- Generator: Sketch 3.7.2 (28276) - http://www.bohemiancoding.com/sketch -->
    <title>1457288500_arrow_21</title>
    <desc>Created with Sketch.</desc>
    <defs>
        <path d="M35,30.9011035 C30.5889632,30.9011035 27,27.3126173 27,22.901411 C27,18.4902047 30.5883483,14.9011035 35,14.9011035 C39.4116517,14.9011035 43,18.4895898 43,22.901411 C43,27.3132322 39.4110368,30.9011035 35,30.9011035 L35,30.9011035 Z" id="path-1"></path>
        <mask id="mask-2" maskContentUnits="userSpaceOnUse" maskUnits="objectBoundingBox" x="0" y="0" width="16" height="16" fill="white">
            <use xlink:href="#path-1"></use>
        </mask>
        <path d="M57.0672164,37.9011035 L12.9327836,37.9011035 C12.9770527,37.607179 13,37.3062693 13,37 C13,33.6862915 10.3137085,31 7,31 L7,14 C10.3137085,14 13,11.3137085 13,8 C13,7.9669715 12.9997331,7.93400534 12.9992014,7.90110354 L57.0007986,7.90110354 C57.0002669,7.93400534 57,7.9669715 57,8 C57,11.3137085 59.6862915,14 63,14 L63,31 C59.6862915,31 57,33.6862915 57,37 C57,37.3062693 57.0229473,37.607179 57.0672164,37.9011035 Z" id="path-3"></path>
        <mask id="mask-4" maskContentUnits="userSpaceOnUse" maskUnits="objectBoundingBox" x="0" y="0" width="56" height="30" fill="white">
            <use xlink:href="#path-3"></use>
        </mask>
    </defs>
    <g id="Welcome" stroke="none" stroke-width="1" fill="none" fill-rule="evenodd" opacity="0.9">
        <g id="Main" transform="translate(-933.000000, -1675.000000)">
            <g id="Group-2" transform="translate(0.000000, 1391.000000)">
                <g id="comission" transform="translate(916.000000, 283.000000)">
                    <g id="1457288500_arrow_21" transform="translate(17.000000, 0.000000)">
                        <g id="svg2">
                            <g id="layer1" transform="translate(0.000000, 0.098896)">
                                <use id="Shape" stroke="#FFFFFF" mask="url(#mask-2)" stroke-width="4" xlink:href="#path-1"></use>
                                <path d="M70,40.1723258 C70,42.7836035 67.8729825,44.9011035 65.2492105,44.9011035 L4.75078947,44.9011035 C2.12701754,44.9011035 0,42.7836035 0,40.1723258 L0,5.62988132 C0,3.01799243 2.12701754,0.901103543 4.75078947,0.901103543 L65.2485965,0.901103543 C67.8723684,0.901103543 69.999386,3.01799243 69.999386,5.62988132 L69.999386,40.1723258 L70,40.1723258 Z M67,4.55096795 C67,4.19157812 66.7142178,3.90110354 66.3606337,3.90110354 L3.63936634,3.90110354 C3.28641584,3.90110354 3,4.19222219 3,4.55096795 L3,41.2505951 C3,41.6099849 3.28641584,41.9011035 3.63936634,41.9011035 L66.3606337,41.9011035 C66.7142178,41.9011035 67,41.6099849 67,41.2505951 L67,4.55096795 L67,4.55096795 Z" id="Shape" fill="#FFFFFF"></path>
                                <use id="Combined-Shape" stroke="#FFFFFF" mask="url(#mask-4)" stroke-width="4" xlink:href="#path-3"></use>
                            </g>
                        </g>
                    </g>
                </g>
            </g>
        </g>
    </g>
</svg>