<?xml version="1.0" encoding="UTF-8" standalone="no"?>
<svg width="60px" height="60px" viewBox="0 0 60 60" version="1.1" xmlns="http://www.w3.org/2000/svg" xmlns:xlink="http://www.w3.org/1999/xlink">
    <!-- Generator: Sketch 3.7.2 (28276) - http://www.bohemiancoding.com/sketch -->
    <title>1457288500_arrow_21</title>
    <desc>Created with Sketch.</desc>
    <defs></defs>
    <g id="Welcome" stroke="none" stroke-width="1" fill="none" fill-rule="evenodd" opacity="0.9">
        <g id="Main" transform="translate(-459.000000, -1661.000000)" fill="#FFFFFF">
            <g id="Group-2" transform="translate(0.000000, 1391.000000)">
                <g id="comission" transform="translate(452.000000, 270.000000)">
                    <g id="1457288500_arrow_21" transform="translate(7.000000, 0.000000)">
                        <path d="M0,30 C0,13.4314565 13.4314565,0 30,0 C46.5685435,0 60,13.4314565 60,30 C60,46.5685435 46.5685435,60 30,60 C13.4314565,60 0,46.5685435 0,30 L0,30 Z M57.3913043,30 C57.3913043,14.8722 45.1278,2.60869565 30,2.60869565 C14.8722,2.60869565 2.60869565,14.8722 2.60869565,30 C2.60869565,45.1278 14.8722,57.3913043 30,57.3913043 C45.1278,57.3913043 57.3913043,45.1278 57.3913043,30 L57.3913043,30 Z M30.6521739,18.2608696 C32.4531026,18.2608696 33.9130435,16.8009287 33.9130435,15 C33.9130435,13.1990713 32.4531026,11.7391304 30.6521739,11.7391304 C28.8512452,11.7391304 27.3913043,13.1990713 27.3913043,15 C27.3913043,16.8009287 28.8512452,18.2608696 30.6521739,18.2608696 L30.6521739,18.2608696 Z M23.4782609,20.8695652 L23.4782609,23.4782609 L27.3913043,23.4782609 L27.3913043,41.7391304 L23.4782609,41.7391304 L23.4782609,44.3478261 L37.826087,44.3478261 L37.826087,41.7391304 L33.9130435,41.7391304 L33.9130435,20.8695652 L23.4782609,20.8695652 L23.4782609,20.8695652 Z" id="circle-info-more-information-detail-outline-stroke"></path>
                    </g>
                </g>
            </g>
        </g>
    </g>
</svg>