<?xml version="1.0" encoding="UTF-8" standalone="no"?>
<svg width="20px" height="16px" viewBox="0 0 20 16" version="1.1" xmlns="http://www.w3.org/2000/svg" xmlns:xlink="http://www.w3.org/1999/xlink">
    <!-- Generator: Sketch 3.7.2 (28276) - http://www.bohemiancoding.com/sketch -->
    <title>folder-shared</title>
    <desc>Created with Sketch.</desc>
    <defs>
        <path d="M18,2 L10,2 L8,0 L2,0 C0.9,0 0,0.9 0,2 L0,14 C0,15.1 0.9,16 2,16 L18,16 C19.1,16 20,15.1 20,14 L20,4 C20,2.9 19.1,2 18,2 L18,2 Z" id="path-1"></path>
        <mask id="mask-2" maskContentUnits="userSpaceOnUse" maskUnits="objectBoundingBox" x="0" y="0" width="20" height="16" fill="white">
            <use xlink:href="#path-1"></use>
        </mask>
    </defs>
    <g id="Welcome" stroke="none" stroke-width="1" fill="none" fill-rule="evenodd" opacity="0.9">
        <g id="Main" transform="translate(-279.000000, -937.000000)">
            <g id="features" transform="translate(0.000000, 602.000000)">
                <g id="folder-shared" transform="translate(279.000000, 335.000000)">
                    <use id="Shape" stroke="#41B1E4" mask="url(#mask-2)" stroke-width="2" fill="#6ECDF8" xlink:href="#path-1"></use>
                    <path d="M17,13 L9,13 L9,12 C9,10.7 11.7,10 13,10 C14.3,10 17,10.7 17,12 L17,13 Z M13,5 C14.1,5 15,5.9 15,7 C15,8.1 14.1,9 13,9 C11.9,9 11,8.1 11,7 C11,5.9 11.9,5 13,5 Z" id="Combined-Shape" fill="#3095C2"></path>
                </g>
            </g>
        </g>
    </g>
</svg>