<?xml version="1.0" encoding="UTF-8" standalone="no"?>
<svg width="61px" height="73px" viewBox="0 0 61 73" version="1.1" xmlns="http://www.w3.org/2000/svg" xmlns:xlink="http://www.w3.org/1999/xlink">
    <!-- Generator: Sketch 3.7.2 (28276) - http://www.bohemiancoding.com/sketch -->
    <title>1457288500_arrow_21</title>
    <desc>Created with Sketch.</desc>
    <defs></defs>
    <g id="Welcome" stroke="none" stroke-width="1" fill="none" fill-rule="evenodd" opacity="0.9">
        <g id="Main" transform="translate(-138.000000, -1654.000000)" fill="#FFFFFF">
            <g id="Group-2" transform="translate(0.000000, 1391.000000)">
                <g id="comission" transform="translate(112.000000, 263.000000)">
                    <g id="1457288500_arrow_21" transform="translate(26.000000, 0.000000)">
                        <g id="svg2">
                            <g id="layer1" transform="translate(0.000000, 0.098896)">
                                <g id="g2987" transform="translate(0.000000, -0.000002)">
                                    <path d="M3.86808314,72.0511132 L8.7429277,72.0511132 L8.7429277,57.4653618 L12.6110093,57.4628499 L6.30550464,43.4212818 L0,57.4628499 L3.86808314,57.4653618 L3.86808314,72.0511132 Z" id="path2983"></path>
                                    <path d="M28.0625785,72.0511132 L32.9374231,72.0511132 L32.9374231,38.8588978 L36.8055046,38.8563859 L30.5,24.8148178 L24.1944954,38.8563859 L28.0625785,38.8588978 L28.0625785,72.0511132 Z" id="path2985"></path>
                                    <path d="M52.2570739,72.0511132 L57.1319184,72.0511132 L57.1319184,14.050279 L61,14.0477672 L54.6944954,0.0061990536 L48.3889907,14.0477672 L52.2570739,14.050279 L52.2570739,72.0511132 Z" id="path3035"></path>
                                </g>
                            </g>
                        </g>
                    </g>
                </g>
            </g>
        </g>
    </g>
</svg>