<?xml version="1.0" encoding="UTF-8" standalone="no"?>
<svg width="18px" height="10px" viewBox="0 0 18 10" version="1.1" xmlns="http://www.w3.org/2000/svg" xmlns:xlink="http://www.w3.org/1999/xlink">
    <!-- Generator: Sketch 3.7.2 (28276) - http://www.bohemiancoding.com/sketch -->
    <title>list</title>
    <desc>Created with Sketch.</desc>
    <defs></defs>
    <g id="Welcome" stroke="none" stroke-width="1" fill="none" fill-rule="evenodd" opacity="0.9">
        <g id="Main" transform="translate(-279.000000, -906.000000)">
            <g id="features" transform="translate(0.000000, 602.000000)">
                <g id="list" transform="translate(279.000000, 304.000000)">
                    <path d="M0,6 L2,6 L2,4 L0,4 L0,6 L0,6 Z M0,10 L2,10 L2,8 L0,8 L0,10 L0,10 Z M0,2 L2,2 L2,0 L0,0 L0,2 L0,2 Z" id="Shape" fill="#000000"></path>
                    <path d="M4,0 L4,2 L18,2 L18,0 L4,0 Z M4,10 L18,10 L18,8 L4,8 L4,10 Z M4,6 L18,6 L18,4 L4,4 L4,6 Z" id="Combined-Shape" fill="#4990E2"></path>
                </g>
            </g>
        </g>
    </g>
</svg>