<?xml version="1.0" encoding="UTF-8" standalone="no"?>
<svg width="21px" height="20px" viewBox="0 0 21 20" version="1.1" xmlns="http://www.w3.org/2000/svg" xmlns:xlink="http://www.w3.org/1999/xlink">
    <!-- Generator: Sketch 3.7.2 (28276) - http://www.bohemiancoding.com/sketch -->
    <title>notifications-on</title>
    <desc>Created with Sketch.</desc>
    <defs>
        <path d="M17,8.5 C17,5.4 14.9,2.9 12,2.2 L12,1.5 C12,0.7 11.3,0 10.5,0 C9.7,0 9,0.7 9,1.5 L9,2.2 C6.1,2.9 4,5.4 4,8.5 L4,14 L2,16 L2,17 L19,17 L19,16 L17,14 L17,8.5 L17,8.5 Z" id="path-1"></path>
        <mask id="mask-2" maskContentUnits="userSpaceOnUse" maskUnits="objectBoundingBox" x="0" y="0" width="17" height="17" fill="white">
            <use xlink:href="#path-1"></use>
        </mask>
    </defs>
    <g id="Welcome" stroke="none" stroke-width="1" fill="none" fill-rule="evenodd" opacity="0.9">
        <g id="Main" transform="translate(-278.000000, -970.000000)">
            <g id="features" transform="translate(0.000000, 602.000000)">
                <g id="notifications-on" transform="translate(278.000000, 368.000000)">
                    <use id="Shape" stroke="#E4AE00" mask="url(#mask-2)" stroke-width="2" fill="#FFC300" xlink:href="#path-1"></use>
                    <path d="M10.5,20 L10.9,20 C11.6,19.9 12.1,19.4 12.3,18.8 C12.4,18.6 12.5,18.3 12.5,18 L8.5,18 C8.5,19.1 9.4,20 10.5,20 L10.5,20 Z" id="Path" fill="#D8B700"></path>
                    <path d="M19,8 L21,8 C20.8,4.8 19.3,2 16.9,0.2 L15.5,1.6 C17.5,3 18.8,5.3 19,8 Z M5.6,1.6 L4.2,0.2 C1.8,2 0.2,4.8 0,8 L2,8 C2.2,5.3 3.5,3 5.6,1.6 Z" id="Combined-Shape" fill="#FF4343"></path>
                </g>
            </g>
        </g>
    </g>
</svg>