<?xml version="1.0" encoding="UTF-8" standalone="no"?>
<svg width="18px" height="20px" viewBox="0 0 18 20" version="1.1" xmlns="http://www.w3.org/2000/svg" xmlns:xlink="http://www.w3.org/1999/xlink">
    <!-- Generator: Sketch 3.7.2 (28276) - http://www.bohemiancoding.com/sketch -->
    <title>receipt</title>
    <desc>Created with Sketch.</desc>
    <defs></defs>
    <g id="Welcome" stroke="none" stroke-width="1" fill="none" fill-rule="evenodd" opacity="0.9">
        <g id="Main" transform="translate(-280.000000, -1006.000000)">
            <g id="features" transform="translate(0.000000, 602.000000)">
                <g id="receipt" transform="translate(280.000000, 404.000000)">
                    <polygon id="Shape" fill="#69D092" points="0 20 1.5 18.5 3 20 4.5 18.5 6 20 7.5 18.5 9 20 10.5 18.5 12 20 13.5 18.5 15 20 16.5 18.5 18 20 18 0 16.5 1.5 15 0 13.5 1.5 12 0 10.5 1.5 9 0 7.5 1.5 6 0 4.5 1.5 3 0 1.5 1.5 0 0"></polygon>
                    <path d="M15,7 L3,7 L3,5 L15,5 L15,7 Z M15,11 L3,11 L3,9 L15,9 L15,11 Z M15,15 L3,15 L3,13 L15,13 L15,15 Z" id="Combined-Shape" fill="#000000" opacity="0.3"></path>
                </g>
            </g>
        </g>
    </g>
</svg>