<?xml version="1.0" encoding="UTF-8" standalone="no"?>
<svg width="18px" height="18px" viewBox="0 0 18 18" version="1.1" xmlns="http://www.w3.org/2000/svg" xmlns:xlink="http://www.w3.org/1999/xlink">
    <!-- Generator: Sketch 3.7.2 (28276) - http://www.bohemiancoding.com/sketch -->
    <title>report</title>
    <desc>Created with Sketch.</desc>
    <defs></defs>
    <g id="Welcome" stroke="none" stroke-width="1" fill="none" fill-rule="evenodd" opacity="0.9">
        <g id="Main" transform="translate(-658.000000, -972.000000)" fill="#FF001F">
            <g id="features" transform="translate(0.000000, 602.000000)">
                <g id="report" transform="translate(658.000000, 370.000000)">
                    <path d="M13,0 L5,0 L0,5 L0,13 L5,18 L13,18 L18,13 L18,5 L13,0 L13,0 Z M9.33333333,14 C8.46153846,14 8,13.5384615 8,13.3333333 C8,12.4615385 8.46153846,12 9.33333333,12 C9.53846154,12 10,12.4615385 10,13.3333333 C10,13.5384615 9.53846154,14 9.33333333,14 L9.33333333,14 Z M10,10 L8,10 L8,4 L10,4 L10,10 L10,10 Z" id="Shape"></path>
                </g>
            </g>
        </g>
    </g>
</svg>