<?xml version="1.0" encoding="UTF-8" standalone="no"?>
<svg viewBox="0 0 22 19" version="1.1" xmlns="http://www.w3.org/2000/svg" xmlns:xlink="http://www.w3.org/1999/xlink">
    <!-- Generator: Sketch 3.7.2 (28276) - http://www.bohemiancoding.com/sketch -->
    <title>shopping-basket</title>
    <desc>Created with Sketch.</desc>
    <defs>
        <rect id="path-1" x="0" y="7" width="22" height="2"></rect>
        <filter x="-50%" y="-50%" width="200%" height="200%" filterUnits="objectBoundingBox" id="filter-2">
            <feOffset dx="0" dy="1" in="SourceAlpha" result="shadowOffsetOuter1"></feOffset>
            <feColorMatrix values="0 0 0 0 0   0 0 0 0 0   0 0 0 0 0  0 0 0 0.12 0" type="matrix" in="shadowOffsetOuter1"></feColorMatrix>
        </filter>
    </defs>
    <g id="Welcome" stroke="none" stroke-width="1" fill="none" fill-rule="evenodd" opacity="0.9">
        <g id="Main" transform="translate(-277.000000, -865.000000)">
            <g id="features" transform="translate(0.000000, 602.000000)">
                <g id="shopping-basket" transform="translate(277.000000, 263.000000)">
                    <path d="M6,7 L1,7 C0.403669725,6.96335079 0,7.36125654 0,8 C0,8.05759162 3,18 3,18 C2.72477064,18.3036649 3.53211009,19 4,19 L18,19 C18.4678899,19 19.2752294,18.4031414 19,18 L22,8 C22,7.36125654 21.5963303,6.96335079 21,7 L16,7 L6,7 Z M11,15 C9.9,15 9,14.1 9,13 C9,11.9 9.9,11 11,11 C12.1,11 13,11.9 13,13 C13,14.1 12.1,15 11,15 L11,15 Z" id="Shape" fill="#5DA707"></path>
                    <path d="M11.8,0.4 C11.6,0.2 11.3,0 11,0 C10.7,0 10.4,0.1 10.2,0.4 L5.8,7 L16.2,7 L11.8,0.4 Z M8,7 L11,2.6 L14,7 L8,7 L8,7 Z" id="Shape" fill="#000000"></path>
                    <g id="Rectangle-50">
                        <use fill="black" fill-opacity="1" filter="url(#filter-2)" xlink:href="#path-1"></use>
                        <use fill="#6EC10E" fill-rule="evenodd" xlink:href="#path-1"></use>
                    </g>
                </g>
            </g>
        </g>
    </g>
</svg>