<?xml version="1.0" encoding="UTF-8" standalone="no"?>
<svg width="56px" height="70px" viewBox="0 0 56 70" version="1.1" xmlns="http://www.w3.org/2000/svg" xmlns:xlink="http://www.w3.org/1999/xlink">
    <!-- Generator: Sketch 3.7.2 (28276) - http://www.bohemiancoding.com/sketch -->
    <title>1457288500_arrow_21</title>
    <desc>Created with Sketch.</desc>
    <defs></defs>
    <g id="Welcome" stroke="none" stroke-width="1" fill="none" fill-rule="evenodd" opacity="0.9">
        <g id="Main" transform="translate(-617.000000, -1656.000000)" fill="#FFFFFF">
            <g id="Group-2" transform="translate(0.000000, 1391.000000)">
                <g id="comission" transform="translate(611.000000, 264.000000)">
                    <g id="1457288500_arrow_21" transform="translate(6.000000, 0.000000)">
                        <g id="svg2">
                            <g id="layer1" transform="translate(0.000000, 0.098896)">
                                <path d="M29.2658421,18.5909901 C30.7754283,16.7254585 31.6796352,14.34991 31.6796352,11.7631725 C31.6796352,5.76421716 26.8165216,0.901103543 20.8175662,0.901103543 C14.8186109,0.901103543 9.95549737,5.76421716 9.95549737,11.7631725 C9.95549737,14.34991 10.8597044,16.7254585 12.3692904,18.5909901 L12.3692904,11.7421638 C12.3692904,7.08344711 16.1517124,3.31489665 20.8175662,3.31489665 C25.4739262,3.31489665 29.2658421,7.08791267 29.2658421,11.7421638 L29.2658421,18.5909901 L29.2658421,18.5909901 L29.2658421,18.5909901 L29.2658421,18.5909901 Z M35.2972816,68.4873102 C45.2972209,68.4873104 53.4037731,59.8333195 53.4037731,50.3838622 C53.4037731,50.3838622 53.4037731,55.9675539 53.4037731,50.3838622 L53.4037731,41.3301157 L53.4037731,35.9051481 C53.4037731,33.9032627 51.7966764,32.2804139 49.7830835,32.2804139 C47.7834319,32.2804139 46.1623938,33.9005262 46.1623938,35.9051481 L46.1623938,37.1080001 L43.7486007,37.1080001 L43.7486007,31.0890585 C43.7486007,29.0808237 42.141504,27.4528277 40.1279111,27.4528277 C38.1282594,27.4528277 36.5072214,29.0737877 36.5072214,31.0890585 L36.5072214,34.694207 L34.0934283,34.694207 L34.0934283,28.6752654 C34.0934283,26.6670306 32.4863316,25.0390346 30.4727387,25.0390346 C28.473087,25.0390346 26.852049,26.6599946 26.852049,28.6752654 L26.852049,37.1080001 L24.4382559,37.1080001 L24.4382559,11.7758236 C24.4382559,9.7691849 22.8311592,8.14248285 20.8175662,8.14248285 C18.8179146,8.14248285 17.1968766,9.75279607 17.1968766,11.7758236 L17.1968766,39.0390051 C12.2283258,33.7276446 5.68701753,27.8851877 3.00626598,30.5804163 C0.382063066,33.2187909 7.14430218,40.4890522 16.5870933,56.3775364 C20.8416943,63.5363492 26.2251505,68.4862044 35.2972816,68.4873102 L35.2972816,68.4873102 L35.2972816,68.4873102 Z M55.8175662,50.3838622 C55.8175662,61.7152222 46.6316849,70.9011035 35.3003249,70.9011043 C27.7863916,70.9011043 19.856411,67.3950343 14.3988569,57.4519864 C6.52147054,43.1002799 -3.55244402,33.6881566 1.24439147,28.8913212 C4.67595824,25.4597544 10.0637358,28.751851 14.7830835,33.1657613 L14.7830835,33.1657613 L14.7830835,11.783469 C14.7830835,8.42107677 17.4848136,5.72868975 20.8175662,5.72868975 C24.1735545,5.72868975 26.852049,8.43950676 26.852049,11.783469 L26.852049,23.8281922 C27.8606049,23.0725304 29.1142489,22.6252415 30.4727387,22.6252415 C33.0857134,22.6252415 35.2879786,24.2605071 36.1350568,26.5551957 C37.1989979,25.6134917 38.5968684,25.0390346 40.1279111,25.0390346 C43.4838993,25.0390346 46.1623938,27.7381998 46.1623938,31.0677887 L46.1623938,31.1002822 C47.1709497,30.3457969 48.4245937,29.9008749 49.7830835,29.9008749 C53.1390718,29.9008749 55.8175662,32.602741 55.8175662,35.9356613 L55.8175662,50.3838622 L55.8175662,50.3838622 L55.8175662,50.3838622 Z" id="one-finger-tap"></path>
                            </g>
                        </g>
                    </g>
                </g>
            </g>
        </g>
    </g>
</svg>