<?xml version="1.0" encoding="UTF-8" standalone="no"?>
<svg width="51px" height="70px" viewBox="0 0 51 70" version="1.1" xmlns="http://www.w3.org/2000/svg" xmlns:xlink="http://www.w3.org/1999/xlink">
    <!-- Generator: Sketch 3.7.2 (28276) - http://www.bohemiancoding.com/sketch -->
    <title>1457288500_arrow_21</title>
    <desc>Created with Sketch.</desc>
    <defs></defs>
    <g id="Welcome" stroke="none" stroke-width="1" fill="none" fill-rule="evenodd" opacity="0.9">
        <g id="Main" transform="translate(-304.000000, -1656.000000)" fill="#FFFFFF">
            <g id="Group-2" transform="translate(0.000000, 1391.000000)">
                <g id="comission" transform="translate(290.000000, 264.000000)">
                    <g id="1457288500_arrow_21" transform="translate(14.000000, 0.000000)">
                        <g id="svg2">
                            <g id="layer1" transform="translate(0.000000, 0.098896)">
                                <g id="dialpad" transform="translate(0.000000, 0.901104)">
                                    <g id="Shape">
                                        <path d="M26,57 C21.925,57 19,59.925 19,64 C19,67.075 21.925,70 26,70 C29.075,70 32,67.075 32,64 C32,59.925 29.075,57 26,57 L26,57 Z M7,0 C2.925,0 0,2.925 0,7 C0,10.075 2.925,13 7,13 C10.075,13 13,10.075 13,7 C13,2.925 10.075,0 7,0 L7,0 Z M7,19 C2.925,19 0,21.925 0,26 C0,29.075 2.925,32 7,32 C10.075,32 13,29.075 13,26 C13,21.925 10.075,19 7,19 L7,19 Z M7,38 C2.925,38 0,40.925 0,45 C0,48.075 2.925,51 7,51 C10.075,51 13,48.075 13,45 C13,40.925 10.075,38 7,38 L7,38 Z M45,13 C48.075,13 51,10.075 51,7 C51,2.925 48.075,0 45,0 C40.925,0 38,2.925 38,7 C38,10.075 40.925,13 45,13 L45,13 Z M26,38 C21.925,38 19,40.925 19,45 C19,48.075 21.925,51 26,51 C29.075,51 32,48.075 32,45 C32,40.925 29.075,38 26,38 L26,38 Z M45,38 C40.925,38 38,40.925 38,45 C38,48.075 40.925,51 45,51 C48.075,51 51,48.075 51,45 C51,40.925 48.075,38 45,38 L45,38 Z M45,19 C40.925,19 38,21.925 38,26 C38,29.075 40.925,32 45,32 C48.075,32 51,29.075 51,26 C51,21.925 48.075,19 45,19 L45,19 Z M26,19 C21.925,19 19,21.925 19,26 C19,29.075 21.925,32 26,32 C29.075,32 32,29.075 32,26 C32,21.925 29.075,19 26,19 L26,19 Z M26,0 C21.925,0 19,2.925 19,7 C19,10.075 21.925,13 26,13 C29.075,13 32,10.075 32,7 C32,2.925 29.075,0 26,0 L26,0 Z"></path>
                                    </g>
                                </g>
                            </g>
                        </g>
                    </g>
                </g>
            </g>
        </g>
    </g>
</svg>