<?xml version="1.0" encoding="UTF-8" standalone="no"?>
<svg width="18px" height="16px" viewBox="0 0 18 16" version="1.1" xmlns="http://www.w3.org/2000/svg" xmlns:xlink="http://www.w3.org/1999/xlink">
    <!-- Generator: Sketch 3.7.2 (28276) - http://www.bohemiancoding.com/sketch -->
    <title>store</title>
    <desc>Created with Sketch.</desc>
    <defs>
        <polygon id="path-1" points="18 7.28571429 17 3 1 3 0 7.28571429 0 9 1 9 11 9 15 9 17 9 18 9"></polygon>
        <filter x="-50%" y="-50%" width="200%" height="200%" filterUnits="objectBoundingBox" id="filter-2">
            <feOffset dx="0" dy="1" in="SourceAlpha" result="shadowOffsetOuter1"></feOffset>
            <feColorMatrix values="0 0 0 0 0   0 0 0 0 0   0 0 0 0 0  0 0 0 0.16 0" type="matrix" in="shadowOffsetOuter1"></feColorMatrix>
        </filter>
    </defs>
    <g id="Welcome" stroke="none" stroke-width="1" fill="none" fill-rule="evenodd" opacity="0.9">
        <g id="Main" transform="translate(-658.000000, -868.000000)">
            <g id="features" transform="translate(0.000000, 602.000000)">
                <g id="store" transform="translate(658.000000, 266.000000)">
                    <path d="M18,10 L18,8 L17,3 L1,3 L0,8 L0,10 L1,10 L1,16 L11,16 L11,10 L15,10 L15,16 L17,16 L17,10 L18,10 L18,10 Z M9,14 L3,14 L3,10 L9,10 L9,14 L9,14 Z" id="Shape" fill="#F6A623"></path>
                    <g id="Shape">
                        <use fill="black" fill-opacity="1" filter="url(#filter-2)" xlink:href="#path-1"></use>
                        <use fill="#D0011B" fill-rule="evenodd" xlink:href="#path-1"></use>
                    </g>
                    <polygon id="Path" fill="#D0011B" points="17 0 1 0 1 2 17 2"></polygon>
                </g>
            </g>
        </g>
    </g>
</svg>