<svg xmlns="http://www.w3.org/2000/svg" style="display:none"><symbol id="check" viewBox="0 0 18 14"><title>Shape</title><path d="M5.6 10.6L1.4 6.4 0 7.8l5.6 5.6 12-12L16.2 0z" fill="#1BCD4D" fill-rule="evenodd"/></symbol><symbol id="post-facebook" viewBox="0 0 20 20"><title>post facebook</title><path d="M18 0H2C.9 0 0 .9 0 2v16c0 1.1.9 2 2 2h16c1.1 0 2-.9 2-2V2c0-1.1-.9-2-2-2zm-1 2v3h-2c-.6 0-1 .4-1 1v2h3v3h-3v7h-3v-7H9V8h2V5.5C11 3.6 12.6 2 14.5 2H17z" fill="#2C5EB7" fill-rule="evenodd" opacity=".9"/></symbol><symbol id="post-twitter" viewBox="0 0 20 20"><title>post twitter</title><path d="M18 0H2C.9 0 0 .9 0 2v16c0 1.1.9 2 2 2h16c1.1 0 2-.9 2-2V2c0-1.1-.9-2-2-2zm-2.3 7.3c-.1 4.6-3 7.8-7.4 8-1.8.1-3.1-.5-4.3-1.2 1.3.2 3-.3 3.9-1.1-1.3-.1-2.1-.8-2.5-1.9.4.1.8 0 1.1 0-1.2-.4-2-1.1-2.1-2.7.3.2.7.3 1.1.3-.9-.5-1.5-2.4-.8-3.6C6 6.5 7.6 7.7 10.2 7.9c-.7-2.8 3.1-4.3 4.6-2.4.7-.1 1.2-.4 1.7-.6-.2.7-.6 1.1-1.1 1.5.5-.1 1-.2 1.4-.4-.1.5-.6.9-1.1 1.3z" fill="#00C4FF" fill-rule="evenodd" opacity=".9"/></symbol></svg>