<svg xmlns="http://www.w3.org/2000/svg" xmlns:xlink="http://www.w3.org/1999/xlink" style="display:none"><defs><path d="M35 30.901c-4.411 0-8-3.588-8-8 0-4.41 3.588-8 8-8s8 3.589 8 8c0 4.412-3.589 8-8 8z" id="a"/><mask id="c" x="0" y="0" width="16" height="16" fill="#fff"><use xlink:href="#a"/></mask><path d="M57.067 37.901H12.933A6 6 0 0 0 7 31V14a6 6 0 0 0 6-6.099h44V8a6 6 0 0 0 6 6v17a6 6 0 0 0-5.933 6.901z" id="b"/><mask id="d" x="0" y="0" width="56" height="30" fill="#fff"><use xlink:href="#b"/></mask><path d="M18 2h-8L8 0H2C.9 0 0 .9 0 2v12c0 1.1.9 2 2 2h16c1.1 0 2-.9 2-2V4c0-1.1-.9-2-2-2z" id="a"/><mask id="b" x="0" y="0" width="20" height="16" fill="#fff"><use xlink:href="#a"/></mask><path d="M17 8.5c0-3.1-2.1-5.6-5-6.3v-.7c0-.8-.7-1.5-1.5-1.5S9 .7 9 1.5v.7c-2.9.7-5 3.2-5 6.3V14l-2 2v1h17v-1l-2-2V8.5z" id="a"/><mask id="b" x="0" y="0" width="17" height="17" fill="#fff"><use xlink:href="#a"/></mask><rect id="a" y="15" width="71" height="41" rx="4"/><mask id="c" x="0" y="0" width="71" height="41" fill="#fff"><use xlink:href="#a"/></mask><path id="b" d="M-10 33h94v3h-94z"/><mask id="d" x="-2" y="-2" width="98" height="7"><path fill="#fff" d="M-12 31h98v7h-98z"/><use xlink:href="#b"/></mask><path id="b" d="M0 7h22v2H0z"/><filter x="-50%" y="-50%" width="200%" height="200%" filterUnits="objectBoundingBox" id="a"><feOffset dy="1" in="SourceAlpha" result="shadowOffsetOuter1"/><feColorMatrix values="0 0 0 0 0 0 0 0 0 0 0 0 0 0 0 0 0 0 0.12 0" in="shadowOffsetOuter1"/></filter><path id="b" d="M0 7h22v2H0z"/><filter x="-50%" y="-50%" width="200%" height="200%" filterUnits="objectBoundingBox" id="a"><feOffset dy="1" in="SourceAlpha" result="shadowOffsetOuter1"/><feColorMatrix values="0 0 0 0 0 0 0 0 0 0 0 0 0 0 0 0 0 0 0.12 0" in="shadowOffsetOuter1"/></filter><path id="b" d="M18 7.286L17 3H1L0 7.286V9h18z"/><filter x="-50%" y="-50%" width="200%" height="200%" filterUnits="objectBoundingBox" id="a"><feOffset dy="1" in="SourceAlpha" result="shadowOffsetOuter1"/><feColorMatrix values="0 0 0 0 0 0 0 0 0 0 0 0 0 0 0 0 0 0 0.16 0" in="shadowOffsetOuter1"/></filter></defs><symbol id="auto_rechrge" viewBox="0 0 70 44"><title>1457288500_arrow_21</title><g transform="translate(0 -.901)" fill="none" fill-rule="evenodd" opacity=".9"><use stroke="#FFF" mask="url(#c)" stroke-width="4" xlink:href="#a"/><path d="M70 40.172c0 2.612-2.127 4.73-4.75 4.73H4.75c-2.623 0-4.75-2.118-4.75-4.73V5.63C0 3.018 2.127.9 4.75.9H65.25c2.623 0 4.75 2.117 4.75 4.729v34.542H70zM67 4.551c0-.36-.286-.65-.64-.65H3.64a.645.645 0 0 0-.64.65v36.7c0 .359.286.65.64.65h62.72c.354 0 .64-.291.64-.65V4.55z" fill="#FFF"/><use stroke="#FFF" mask="url(#d)" stroke-width="4" xlink:href="#b"/></g></symbol><symbol id="call_detail" viewBox="0 0 60 60"><title>1457288500_arrow_21</title><path d="M0 30C0 13.431 13.431 0 30 0c16.569 0 30 13.431 30 30 0 16.569-13.431 30-30 30C13.431 60 0 46.569 0 30zm57.391 0C57.391 14.872 45.128 2.609 30 2.609 14.872 2.609 2.609 14.872 2.609 30c0 15.128 12.263 27.391 27.391 27.391 15.128 0 27.391-12.263 27.391-27.391zM30.652 18.26a3.26 3.26 0 1 0 0-6.52 3.26 3.26 0 0 0 0 6.52zm-7.174 2.61v2.608h3.913V41.74h-3.913v2.609h14.348v-2.609h-3.913V20.87H23.478z" fill="#FFF" fill-rule="evenodd" opacity=".9"/></symbol><symbol id="folder-shared" viewBox="0 0 20 16"><title>folder-shared</title><g fill="none" fill-rule="evenodd" opacity=".9"><use stroke="#41B1E4" mask="url(#b)" stroke-width="2" fill="#6ECDF8" xlink:href="#a"/><path d="M17 13H9v-1c0-1.3 2.7-2 4-2 1.3 0 4 .7 4 2v1zm-4-8c1.1 0 2 .9 2 2s-.9 2-2 2-2-.9-2-2 .9-2 2-2z" fill="#3095C2"/></g></symbol><symbol id="high_comission" viewBox="0 0 61 73"><title>1457288500_arrow_21</title><g fill="#FFF" fill-rule="evenodd" opacity=".9"><path d="M3.868 72.15h4.875V57.564l3.868-.002L6.306 43.52 0 57.562l3.868.002V72.15zM28.063 72.15h4.874V38.958l3.869-.003L30.5 24.914l-6.306 14.041 3.869.003V72.15zM52.257 72.15h4.875v-58L61 14.146 54.694.105 48.39 14.147l3.868.002V72.15z"/></g></symbol><symbol id="keyboard-tab" viewBox="0 0 21 12"><title>keyboard-tab</title><path d="M10.6 1.4L14.2 5H0v2h14.2l-3.6 3.6L12 12l6-6-6-6-1.4 1.4zM19 0v12h2V0h-2z" opacity=".4" fill="#000" fill-rule="evenodd"/></symbol><symbol id="list" viewBox="0 0 18 10"><title>list</title><g fill="none" fill-rule="evenodd" opacity=".9"><path d="M0 6h2V4H0v2zm0 4h2V8H0v2zm0-8h2V0H0v2z" fill="#000"/><path d="M4 0v2h14V0H4zm0 10h14V8H4v2zm0-4h14V4H4v2z" fill="#4990E2"/></g></symbol><symbol id="notifications-on" viewBox="0 0 21 20"><title>notifications-on</title><g fill="none" fill-rule="evenodd" opacity=".9"><use stroke="#E4AE00" mask="url(#b)" stroke-width="2" fill="#FFC300" xlink:href="#a"/><path d="M10.5 20h.4c.7-.1 1.2-.6 1.4-1.2.1-.2.2-.5.2-.8h-4c0 1.1.9 2 2 2z" fill="#D8B700"/><path d="M19 8h2c-.2-3.2-1.7-6-4.1-7.8l-1.4 1.4C17.5 3 18.8 5.3 19 8zM5.6 1.6L4.2.2C1.8 2 .2 4.8 0 8h2c.2-2.7 1.5-5 3.6-6.4z" fill="#FF4343"/></g></symbol><symbol id="pinless" viewBox="0 0 76 75"><title>Group 8</title><g transform="translate(1 3)" fill="none" fill-rule="evenodd" opacity=".9"><use stroke="#FFF" mask="url(#c)" stroke-width="6" xlink:href="#a"/><text font-family=".SFNSDisplay-Regular, .SF NS Display" font-size="29" fill="#FFF"><tspan x="7.312" y="46">****</tspan></text><g transform="rotate(-45 37 34.5)"><use fill="#FFF" xlink:href="#b"/><use stroke="#3A89D6" mask="url(#d)" stroke-width="4" xlink:href="#b"/></g></g></symbol><symbol id="post-facebook" viewBox="0 0 20 20"><title>post-facebook</title><path d="M18 0H2C.9 0 0 .9 0 2v16c0 1.1.9 2 2 2h16c1.1 0 2-.9 2-2V2c0-1.1-.9-2-2-2zm-1 2v3h-2c-.6 0-1 .4-1 1v2h3v3h-3v7h-3v-7H9V8h2V5.5C11 3.6 12.6 2 14.5 2H17z" fill="#2C5EB7" fill-rule="evenodd" opacity=".9"/></symbol><symbol id="post-twitter" viewBox="0 0 20 20"><title>post twitter</title><path d="M18 0H2C.9 0 0 .9 0 2v16c0 1.1.9 2 2 2h16c1.1 0 2-.9 2-2V2c0-1.1-.9-2-2-2zm-2.3 7.3c-.1 4.6-3 7.8-7.4 8-1.8.1-3.1-.5-4.3-1.2 1.3.2 3-.3 3.9-1.1-1.3-.1-2.1-.8-2.5-1.9.4.1.8 0 1.1 0-1.2-.4-2-1.1-2.1-2.7.3.2.7.3 1.1.3-.9-.5-1.5-2.4-.8-3.6C6 6.5 7.6 7.7 10.2 7.9c-.7-2.8 3.1-4.3 4.6-2.4.7-.1 1.2-.4 1.7-.6-.2.7-.6 1.1-1.1 1.5.5-.1 1-.2 1.4-.4-.1.5-.6.9-1.1 1.3z" fill="#00C4FF" fill-rule="evenodd" opacity=".9"/></symbol><symbol id="receipt" viewBox="0 0 18 20"><title>receipt</title><g fill="none" fill-rule="evenodd" opacity=".9"><path fill="#69D092" d="M0 20l1.5-1.5L3 20l1.5-1.5L6 20l1.5-1.5L9 20l1.5-1.5L12 20l1.5-1.5L15 20l1.5-1.5L18 20V0l-1.5 1.5L15 0l-1.5 1.5L12 0l-1.5 1.5L9 0 7.5 1.5 6 0 4.5 1.5 3 0 1.5 1.5 0 0z"/><path d="M15 7H3V5h12v2zm0 4H3V9h12v2zm0 4H3v-2h12v2z" fill="#000" opacity=".3"/></g></symbol><symbol id="refresh" viewBox="0 0 16 16"><title>refresh</title><path d="M13.6 2.4C12.2.9 10.2 0 8 0 3.6 0 0 3.6 0 8s3.6 8 8 8c3.7 0 6.8-2.6 7.7-6h-2.1c-.8 2.3-3 4-5.6 4-3.3 0-6-2.7-6-6s2.7-6 6-6c1.7 0 3.1.7 4.2 1.8L9 7h7V0l-2.4 2.4z" fill="#00B6DD" fill-rule="evenodd" opacity=".9"/></symbol><symbol id="report" viewBox="0 0 18 18"><title>report</title><path d="M13 0H5L0 5v8l5 5h8l5-5V5l-5-5zM9.333 14C8.462 14 8 13.538 8 13.333 8 12.462 8.462 12 9.333 12c.205 0 .667.462.667 1.333 0 .205-.462.667-.667.667zM10 10H8V4h2v6z" fill="#FF001F" fill-rule="evenodd" opacity=".9"/></symbol><symbol id="shopping-basket" viewBox="0 0 22 19"><title>shopping-basket</title><g fill="none" fill-rule="evenodd" opacity=".9"><path d="M6 7H1c-.596-.037-1 .361-1 1 0 .058 3 10 3 10-.275.304.532 1 1 1h14c.468 0 1.275-.597 1-1l3-10c0-.639-.404-1.037-1-1H6zm5 8c-1.1 0-2-.9-2-2s.9-2 2-2 2 .9 2 2-.9 2-2 2z" fill="#5DA707"/><path d="M11.8.4c-.2-.2-.5-.4-.8-.4-.3 0-.6.1-.8.4L5.8 7h10.4L11.8.4zM8 7l3-4.4L14 7H8z" fill="#000"/><g><use fill="#000" filter="url(#a)" xlink:href="#b"/><use fill="#6EC10E" xlink:href="#b"/></g></g></symbol><symbol id="shopping-cart" viewBox="0 0 22 19"><title>shopping-basket</title><g fill="none" fill-rule="evenodd" opacity=".9"><path d="M6 7H1c-.596-.037-1 .361-1 1 0 .058 3 10 3 10-.275.304.532 1 1 1h14c.468 0 1.275-.597 1-1l3-10c0-.639-.404-1.037-1-1H6zm5 8c-1.1 0-2-.9-2-2s.9-2 2-2 2 .9 2 2-.9 2-2 2z" fill="#5DA707"/><path d="M11.8.4c-.2-.2-.5-.4-.8-.4-.3 0-.6.1-.8.4L5.8 7h10.4L11.8.4zM8 7l3-4.4L14 7H8z" fill="#000"/><g><use fill="#000" filter="url(#a)" xlink:href="#b"/><use fill="#6EC10E" xlink:href="#b"/></g></g></symbol><symbol id="sitemap" viewBox="0 0 21 18"><title>sitemap</title><g fill="none" fill-rule="evenodd" opacity=".9"><path d="M10 6H8V0h5v6h-3zM21 18h-5v-6h1-6 2v6H8v-6h2-6 1c-.11.547 0 .812 0 1v4c0 .187-.11.453 0 1-.547-.11-5 0-5 0 .11-.547 0-.813 0-1v-4c0-.188.11-.453 0-1 .547.11 2 0 2 0h19v6z" fill="#1BCD4D"/><path d="M18 12V9h-7v3H8h2V9H3v3H2V9c.742-.602 1.094-.75 1-1h7V6h1v2h7c.406.25 1 1 1 1v3h-1z" fill="#000"/></g></symbol><symbol id="smart_dial" viewBox="0 0 56 70"><title>1457288500_arrow_21</title><path d="M29.266 17.69a10.817 10.817 0 0 0 2.414-6.828C31.68 4.863 26.817 0 20.818 0c-6 0-10.863 4.863-10.863 10.862 0 2.587.905 4.962 2.414 6.828V10.84c0-4.659 3.783-8.427 8.449-8.427 4.656 0 8.448 3.773 8.448 8.427v6.849zm6.031 49.896c10 0 18.107-8.654 18.107-18.103 0 0 0 5.583 0 0V35.004a3.614 3.614 0 0 0-3.62-3.625c-2 0-3.622 1.62-3.622 3.625v1.203H43.75v-6.019a3.62 3.62 0 1 0-7.242 0v3.605h-2.414v-6.019a3.62 3.62 0 1 0-7.241 0v8.433h-2.414V10.875a3.618 3.618 0 0 0-3.62-3.634c-2 0-3.621 1.61-3.621 3.634v27.263c-4.969-5.311-11.51-11.154-14.19-8.459-2.625 2.639 4.137 9.909 13.58 25.797 4.255 7.16 9.638 12.11 18.71 12.11zm20.52-18.103C55.818 60.814 46.633 70 35.3 70c-7.514 0-15.444-3.506-20.901-13.45C6.52 42.2-3.552 32.788 1.244 27.99c3.432-3.431 8.82-.14 13.54 4.275V10.882a6.033 6.033 0 0 1 6.034-6.054 6.03 6.03 0 0 1 6.034 6.054v12.045a6.017 6.017 0 0 1 3.62-1.203 6.017 6.017 0 0 1 5.663 3.93 6.007 6.007 0 0 1 3.993-1.516c3.356 0 6.034 2.7 6.034 6.029v.032a6.022 6.022 0 0 1 3.621-1.2 6.02 6.02 0 0 1 6.035 6.036v14.448z" fill="#FFF" fill-rule="evenodd" opacity=".9"/></symbol><symbol id="speed_deal" viewBox="0 0 51 70"><title>1457288500_arrow_21</title><path d="M26 57c-4.075 0-7 2.925-7 7 0 3.075 2.925 6 7 6 3.075 0 6-2.925 6-6 0-4.075-2.925-7-6-7zM7 0C2.925 0 0 2.925 0 7c0 3.075 2.925 6 7 6 3.075 0 6-2.925 6-6 0-4.075-2.925-7-6-7zm0 19c-4.075 0-7 2.925-7 7 0 3.075 2.925 6 7 6 3.075 0 6-2.925 6-6 0-4.075-2.925-7-6-7zm0 19c-4.075 0-7 2.925-7 7 0 3.075 2.925 6 7 6 3.075 0 6-2.925 6-6 0-4.075-2.925-7-6-7zm38-25c3.075 0 6-2.925 6-6 0-4.075-2.925-7-6-7-4.075 0-7 2.925-7 7 0 3.075 2.925 6 7 6zM26 38c-4.075 0-7 2.925-7 7 0 3.075 2.925 6 7 6 3.075 0 6-2.925 6-6 0-4.075-2.925-7-6-7zm19 0c-4.075 0-7 2.925-7 7 0 3.075 2.925 6 7 6 3.075 0 6-2.925 6-6 0-4.075-2.925-7-6-7zm0-19c-4.075 0-7 2.925-7 7 0 3.075 2.925 6 7 6 3.075 0 6-2.925 6-6 0-4.075-2.925-7-6-7zm-19 0c-4.075 0-7 2.925-7 7 0 3.075 2.925 6 7 6 3.075 0 6-2.925 6-6 0-4.075-2.925-7-6-7zm0-19c-4.075 0-7 2.925-7 7 0 3.075 2.925 6 7 6 3.075 0 6-2.925 6-6 0-4.075-2.925-7-6-7z" fill="#FFF" fill-rule="evenodd" opacity=".9"/></symbol><symbol id="store" viewBox="0 0 18 16"><title>store</title><g fill="none" fill-rule="evenodd" opacity=".9"><path d="M18 10V8l-1-5H1L0 8v2h1v6h10v-6h4v6h2v-6h1zm-9 4H3v-4h6v4z" fill="#F6A623"/><g><use fill="#000" filter="url(#a)" xlink:href="#b"/><use fill="#D0011B" xlink:href="#b"/></g><path fill="#D0011B" d="M17 0H1v2h16z"/></g></symbol></svg>