<svg xmlns="http://www.w3.org/2000/svg" xmlns:xlink="http://www.w3.org/1999/xlink" style="display:none"><defs><path d="M18 2h-8L8 0H2C.9 0 0 .9 0 2v12c0 1.1.9 2 2 2h16c1.1 0 2-.9 2-2V4c0-1.1-.9-2-2-2z" id="a"/><mask id="b" x="0" y="0" width="20" height="16" fill="#fff"><use xlink:href="#a"/></mask><path d="M17 8.5c0-3.1-2.1-5.6-5-6.3v-.7c0-.8-.7-1.5-1.5-1.5S9 .7 9 1.5v.7c-2.9.7-5 3.2-5 6.3V14l-2 2v1h17v-1l-2-2V8.5z" id="a"/><mask id="b" x="0" y="0" width="17" height="17" fill="#fff"><use xlink:href="#a"/></mask><path id="b" d="M0 7h22v2H0z"/><filter x="-50%" y="-50%" width="200%" height="200%" filterUnits="objectBoundingBox" id="a"><feOffset dy="1" in="SourceAlpha" result="shadowOffsetOuter1"/><feColorMatrix values="0 0 0 0 0 0 0 0 0 0 0 0 0 0 0 0 0 0 0.12 0" in="shadowOffsetOuter1"/></filter></defs><symbol id="customer-list" viewBox="0 0 18 10"><g fill="none" fill-rule="evenodd" opacity=".9"><path d="M0 6h2V4H0v2zm0 4h2V8H0v2zm0-8h2V0H0v2z" fill="#000"/><path d="M4 0v2h14V0H4zm0 10h14V8H4v2zm0-4h14V4H4v2z" fill="#4990E2"/></g></symbol><symbol id="manage-employees" viewBox="0 0 20 16"><g fill="none" fill-rule="evenodd" opacity=".9"><use stroke="#41B1E4" mask="url(#b)" stroke-width="2" fill="#6ECDF8" xlink:href="#a"/><path d="M17 13H9v-1c0-1.3 2.7-2 4-2 1.3 0 4 .7 4 2v1zm-4-8c1.1 0 2 .9 2 2s-.9 2-2 2-2-.9-2-2 .9-2 2-2z" fill="#3095C2"/></g></symbol><symbol id="set-reminders" viewBox="0 0 21 20"><g fill="none" fill-rule="evenodd" opacity=".9"><use stroke="#E4AE00" mask="url(#b)" stroke-width="2" fill="#FFC300" xlink:href="#a"/><path d="M10.5 20h.4c.7-.1 1.2-.6 1.4-1.2.1-.2.2-.5.2-.8h-4c0 1.1.9 2 2 2z" fill="#D8B700"/><path d="M19 8h2c-.2-3.2-1.7-6-4.1-7.8l-1.4 1.4C17.5 3 18.8 5.3 19 8zM5.6 1.6L4.2.2C1.8 2 .2 4.8 0 8h2c.2-2.7 1.5-5 3.6-6.4z" fill="#FF4343"/></g></symbol><symbol id="shopping-basket" viewBox="0 0 22 19"><g fill="none" fill-rule="evenodd" opacity=".9"><path d="M6 7H1c-.596-.037-1 .361-1 1 0 .058 3 10 3 10-.275.304.532 1 1 1h14c.468 0 1.275-.597 1-1l3-10c0-.639-.404-1.037-1-1H6zm5 8c-1.1 0-2-.9-2-2s.9-2 2-2 2 .9 2 2-.9 2-2 2z" fill="#5DA707"/><path d="M11.8.4c-.2-.2-.5-.4-.8-.4-.3 0-.6.1-.8.4L5.8 7h10.4L11.8.4zM8 7l3-4.4L14 7H8z" fill="#000"/><use fill="#000" filter="url(#a)" xlink:href="#b"/><use fill="#6EC10E" xlink:href="#b"/></g></symbol></svg>